<svg xmlns="http://www.w3.org/2000/svg" width="131.456" height="616.843" viewBox="0 0 131.456 616.843">
  <g id="Group_1" data-name="Group 1" transform="translate(532.129 -202.514) rotate(90)">
    <path id="Path_1" data-name="Path 1" d="M278.919,432.681a31.52,31.52,0,0,0-11.322-9.02,35.1,35.1,0,0,0-14.451-2.762q-10.68,0-16.662,4.144T230.5,435.077a9.283,9.283,0,0,0,2.668,6.533,26.905,26.905,0,0,0,6.906,5.155,90.8,90.8,0,0,0,9.2,4.329q4.971,2.028,9.759,3.683h-.185q5.34,1.838,12.058,4.786a61.013,61.013,0,0,1,12.707,7.548,43.613,43.613,0,0,1,10.126,11.047,27.643,27.643,0,0,1,4.14,15.281,36.407,36.407,0,0,1-3.5,16.3,33.386,33.386,0,0,1-9.759,11.877,44.819,44.819,0,0,1-14.639,7.269,63.4,63.4,0,0,1-18.134,2.487,57.549,57.549,0,0,1-25.776-5.891q-11.969-5.89-23.565-18.779l16.2-13.258q6.629,9.211,15.005,13.439a39.967,39.967,0,0,0,18.319,4.238,45.482,45.482,0,0,0,10.4-1.106,28.441,28.441,0,0,0,8.1-3.132,16.869,16.869,0,0,0,5.337-4.786,10.354,10.354,0,0,0,1.936-6.076,12.7,12.7,0,0,0-2.762-8.1,27.524,27.524,0,0,0-7-6.17,49.587,49.587,0,0,0-9.575-4.6q-5.34-1.936-10.311-3.592l-4.416-1.654q-6.264-2.213-12.246-4.7a42.038,42.038,0,0,1-10.768-6.442,29.891,29.891,0,0,1-7.733-9.85q-2.952-5.89-2.947-14.545a37.821,37.821,0,0,1,2.393-13.258A29.673,29.673,0,0,1,220,411.784a37.811,37.811,0,0,1,13.258-7.824,57.342,57.342,0,0,1,19.515-2.947,70.942,70.942,0,0,1,12.7,1.106,48.071,48.071,0,0,1,11.786,3.774,56.384,56.384,0,0,1,11.137,7,74.5,74.5,0,0,1,10.771,10.771l-17.123,13.624Z" transform="translate(0 0.762)" fill="#fff"/>
    <path id="Path_2" data-name="Path 2" d="M234.6,530.062V401.184h79.537v19.885H254.482v32.219h54.312V473.17H254.482v37.011h60.2v19.882Z" transform="translate(71.94 1.146)" fill="#fff"/>
    <path id="Path_3" data-name="Path 3" d="M261.569,530.062V401.184h79.537v19.885H281.454v32.219h54.312V473.17H281.454v37.011h60.2v19.882Z" transform="translate(132.419 1.146)" fill="#fff"/>
    <path id="Path_4" data-name="Path 4" d="M288.541,530.062V401.184h19.7v54.127l54.13-54.127h26.7l-62.784,62.6q7.363,7.733,15.375,16.2t16.108,17.123q8.1,8.657,16.111,17.028t15.19,15.926H361.451l-53.209-56.708v56.708Z" transform="translate(192.899 1.146)" fill="#fff"/>
    <path id="Path_5" data-name="Path 5" d="M392.073,530.062V473.17H338.863v56.893H318.978V401.184h19.885v52.1h53.209v-52.1h19.882V530.062Z" transform="translate(261.148 1.146)" fill="#fff"/>
    <path id="Path_6" data-name="Path 6" d="M470.52,466.031a82.241,82.241,0,0,1-3.774,24.855,60.985,60.985,0,0,1-11.416,21.081A56.941,56.941,0,0,1,436.366,526.6q-11.322,5.525-26.237,5.525T383.986,526.6a57.18,57.18,0,0,1-18.873-14.636A60.934,60.934,0,0,1,353.7,490.887a82.137,82.137,0,0,1-3.771-24.855,80.633,80.633,0,0,1,3.771-24.577,60.163,60.163,0,0,1,11.416-20.9A56.776,56.776,0,0,1,383.986,406.1q11.225-5.432,26.143-5.431t26.237,5.431a56.546,56.546,0,0,1,18.964,14.451,60.213,60.213,0,0,1,11.416,20.9A80.737,80.737,0,0,1,470.52,466.031Zm-97.947-17.307a60.567,60.567,0,0,0,0,34.984,45.311,45.311,0,0,0,7.545,14.636A36.178,36.178,0,0,0,392.64,508.47a38.607,38.607,0,0,0,17.489,3.774,39.907,39.907,0,0,0,17.677-3.68,36.2,36.2,0,0,0,12.612-10.035,43.057,43.057,0,0,0,7.545-14.639,61.091,61.091,0,0,0,2.49-17.674" transform="translate(330.543 0)" fill="#fff"/>
    <circle id="Ellipse_1" data-name="Ellipse 1" cx="10.929" cy="10.929" r="10.929" transform="translate(797.498 507.749)" fill="#fff"/>
  </g>
</svg>
