<svg xmlns="http://www.w3.org/2000/svg" width="102.161" height="139.355" viewBox="0 0 102.161 139.355">
  <g id="Group_26" data-name="Group 26" transform="translate(-132.243 -236.592)">
    <path id="Path_11" data-name="Path 11" d="M180.693,258.314q-19.456,0-38.912,0c-1.794,0-2.766-.8-2.775-2.249s.979-2.285,2.759-2.286q38.912,0,77.826,0c2.045,0,3.116,1.071,2.8,2.743-.231,1.208-1.058,1.781-2.645,1.783q-12.245.012-24.491.008Q187.971,258.317,180.693,258.314Z" transform="translate(4.258 10.821)" fill="#298836"/>
    <path id="Path_12" data-name="Path 12" d="M175.372,282.477c-.148-.212-.192-.246-.2-.285-.593-4.237-.593-4.232,3.572-4.232q10.279,0,20.555,0a9.475,9.475,0,0,1,1.626.078,2.154,2.154,0,0,1,1.892,2.412,2.114,2.114,0,0,1-2.164,2.009c-1.859.051-3.721.02-5.582.021l-18.376,0Z" transform="translate(26.857 26.048)" fill="#298836"/>
    <path id="Path_13" data-name="Path 13" d="M159.271,282.487c-1.491,0-2.8,0-4.105,0-3.941,0-7.883.008-11.823-.013-1.555-.008-2.44-.777-2.5-2.083a2.18,2.18,0,0,1,2.352-2.4c5.073-.049,10.146-.029,15.221.008.285,0,.8.376.815.6C159.313,279.848,159.271,281.106,159.271,282.487Z" transform="translate(5.414 26.048)" fill="#298836"/>
    <path id="Path_14" data-name="Path 14" d="M146.84,236.592h86.035c.95.807,1.864,1.64,1.333,3.074-.556,1.5-1.824,1.535-3.147,1.524-2.9-.028-5.807-.008-8.711-.008q-36.749,0-73.5,0a11.725,11.725,0,0,0-12.078,11.442,11.572,11.572,0,0,0,11.359,11.835c4.936.217,9.889.114,14.832.051,1.353-.018,1.767.323,1.762,1.731-.055,13.882-.031,27.765-.044,41.647,0,1.2.125,2.293,1.354,2.868,1.276.6,2.236-.007,3.184-.826q6.586-5.7,13.212-11.352c.3-.254.621-.473.94-.712,4.7,3.954,9.323,7.824,13.918,11.734,1.027.875,2.119,1.573,3.435,1.019,1.388-.583,1.219-1.962,1.219-3.193q0-20.554,0-41.1v-1.612a7.322,7.322,0,0,1,.963-.156q14.5-.01,28.989,0A2.249,2.249,0,0,1,234.383,267c.037.587.015,1.178.015,1.768v58.8q0,22.661-.008,45.322c0,2.223-.787,3.051-2.87,3.051q-41.511.007-83.023-.049a17.6,17.6,0,0,1-6.08-1.2c-6.326-2.418-10.168-8.411-10.171-15.466q-.007-18.442,0-36.885,0-34.365.01-68.732c0-7.684,4.219-13.8,11.059-16.1C144.461,237.122,145.664,236.893,146.84,236.592Z" transform="translate(0 0)" fill="#606060"/>
    <path id="Path_15" data-name="Path 15" d="M190.771,239.833v68.291c-2.425-2.052-4.622-3.9-6.8-5.759q-4.784-4.082-9.55-8.184c-2.72-2.324-3.856-2.326-6.529-.033q-7.27,6.239-14.54,12.472c-.515.442-1.066.841-1.794,1.413v-68.2Z" transform="translate(12.16 2.041)" fill="#b4b4b4"/>
  </g>
</svg>
