<svg xmlns="http://www.w3.org/2000/svg" width="208" height="144.284" viewBox="0 0 208 144.284">
  <g id="Group_27" data-name="Group 27" transform="translate(-381.413 -236.165)">
    <path id="Path_16" data-name="Path 16" d="M405.873,360.743a3.626,3.626,0,0,1-1.612-3.568c.12-1.387.028-2.792.023-4.188-.012-2.578-.082-4.975-1.447-7.476-1.988-3.644-2.247-7.927-2.6-12.059-.693-8.021-.129-16.036.357-24.039a15.456,15.456,0,0,1,5.632-11.148c3.57-3.037,7.085-6.136,10.624-9.208a3.6,3.6,0,0,0,.787-.732,1.5,1.5,0,0,0,.274-1.074c-.092-.234-.621-.389-.969-.416-1.435-.114-2.885-.08-4.309-.262-1.8-.232-3.512-1.057-3.831-2.91-.262-1.522,1.044-2.713,2.275-3.578,2.409-1.692,5.132-1.8,7.905-1.256a1.4,1.4,0,0,1,.862,1c.105,1.32.042,2.651.042,4.036,1.218.615,2.01.416,2.755-.864a66.584,66.584,0,0,1,9.94-13.265,13.35,13.35,0,0,1,9.815-4.137q26.771-.1,53.542,0a13.35,13.35,0,0,1,9.815,4.137,65.045,65.045,0,0,1,9.923,13.276,2.053,2.053,0,0,0,2.718,1.012c0-1.372-.043-2.653.015-3.928.042-.865.53-1.308,1.465-1.412,2.914-.326,5.747-.211,7.979,1.933a4.726,4.726,0,0,1,1.649,3.044c-.1,1.482-1.494,2.446-3.012,2.7-1.587.269-3.214.3-4.82.471a7.256,7.256,0,0,0-1.295.386c.2.461.271,1.061.61,1.36,3.714,3.283,7.463,6.526,11.213,9.767a16.265,16.265,0,0,1,5.617,11.863c.16,2.653.226,5.311.356,7.967a12.431,12.431,0,0,0,.242,1.448v11.36c-.1.7-.217,1.4-.281,2.11-.391,4.258-.645,8.652-2.641,12.441a14.515,14.515,0,0,0-1.444,7.326c.01,1.393-.077,2.795.022,4.182a3.7,3.7,0,0,1-1.607,3.7H505.413a3.754,3.754,0,0,1-1.611-3.7c.1-1.644.022-3.3.022-4.947H434.508c0,1.721-.077,3.34.022,4.947a3.745,3.745,0,0,1-1.607,3.7Zm63.258-69.485c11.218,0,22.438.077,33.656-.057a37.26,37.26,0,0,0,8.093-1.241c1.659-.4,1.854-1.124.926-2.546-2.879-4.4-5.8-8.781-8.806-13.1a10.468,10.468,0,0,0-8.859-4.437q-24.942-.178-49.883-.013c-3.188.017-6.313,1.068-8.268,3.675-3.314,4.421-6.313,9.08-9.349,13.7-1.081,1.646-.779,2.19,1.106,2.905a4.461,4.461,0,0,0,1.034.3,59.6,59.6,0,0,0,6.828.773C446.782,291.3,457.957,291.258,469.132,291.258Zm31.209,47.919H438c2,6.019,4.988,8.651,10.341,8.632q20.825-.07,41.652,0C495.332,347.827,498.311,345.226,500.341,339.177ZM419.5,321.827v-.057c2.7,0,5.41.12,8.1-.035s3.234-1.32,1.821-3.582c-2.332-3.734-5.889-5.859-9.885-7.347a1.917,1.917,0,0,1-1.519-1.734,4.321,4.321,0,0,0-2.5-3.627c-4.588-1.965-8.119-1.218-10.2,3.589a12.783,12.783,0,0,0-.8,2.569c-1.24,6.292,2.013,10.2,8.483,10.223C415.179,321.834,417.34,321.827,419.5,321.827Zm99.124,0v-.008c2.476,0,4.953.05,7.429-.012,3.978-.1,7.464-2.416,7.857-5.717a16.09,16.09,0,0,0-.725-6.474c-1.407-4.532-4.633-6.016-9.188-4.669A4.779,4.779,0,0,0,520.331,309a2.052,2.052,0,0,1-1.59,1.829c-3.949,1.478-7.471,3.583-9.792,7.261-1.472,2.336-.924,3.4,1.841,3.68.581.058,1.169.053,1.754.055C514.571,321.83,516.6,321.827,518.624,321.827Zm-84.153,25.967a3.51,3.51,0,0,0-.194-.662c-1.661-2.835-3.246-5.72-5.027-8.478a6.818,6.818,0,0,0-5.241-3.251c-4.446-.332-8.908-.469-13.365-.633a1.939,1.939,0,0,0-2.028,1.485c-.91,3.116.423,7.154,3.249,8.779a16.539,16.539,0,0,0,6.225,2.387c4.285.438,8.63.287,12.951.369C432.151,347.81,433.258,347.794,434.471,347.794Zm69.36-.077c.484.032.83.075,1.176.075,4.147,0,8.3.139,12.438-.057a21.532,21.532,0,0,0,6.3-1.268c4.73-1.734,6.064-3.874,6.049-8.873-.007-2.23-.665-2.92-2.92-2.838-3.963.144-7.927.307-11.885.553a7.609,7.609,0,0,0-6.141,3.685c-1.55,2.427-2.96,4.943-4.419,7.429C504.207,346.8,504.06,347.214,503.831,347.717Zm.025-28.042H434.473l.264,2.095H503.6ZM435.4,323.964c.473,2.189.473,2.19,2.387,2.19q31.445,0,62.888,0c1.848,0,2.008-.162,2.152-2.192Zm-.576-7.037.224.484H503.3l.217-.411a8.243,8.243,0,0,0-2.122-1.255,17.469,17.469,0,0,0-4.008-.463q-28.242-.04-56.482,0a17.075,17.075,0,0,0-3.878.433A9.191,9.191,0,0,0,434.827,316.927Zm66.205,11.459h-63.8a5.611,5.611,0,0,0,4.422,2.118c2.7-.08,5.406-.022,8.109-.022q23.523,0,47.043.015A5.211,5.211,0,0,0,501.032,328.386Z" transform="translate(12.406 19.706)" fill="#606060"/>
    <path id="Path_17" data-name="Path 17" d="M502.535,253.791a18.873,18.873,0,0,0-15.273,29.961c-1.545,3.346-4.28,9.229-4.447,9.329l9.783-4.369a18.874,18.874,0,1,0,9.937-34.921Z" transform="translate(68.003 11.821)" fill="#606060"/>
    <path id="Path_18" data-name="Path 18" d="M407.035,236.165a25.62,25.62,0,0,1,20.734,40.673c2.1,4.542,5.809,12.526,6.038,12.662l-13.282-5.927a25.623,25.623,0,1,1-13.49-47.407Z" transform="translate(0)" fill="#606060"/>
  </g>
</svg>
