<svg xmlns="http://www.w3.org/2000/svg" width="151.329" height="190.617" viewBox="0 0 151.329 190.617">
  <g id="Group_4" data-name="Group 4" transform="translate(-696.534 -234.717)">
    <path id="Path_19" data-name="Path 19" d="M749.834,413.38c-5.794-4.4-13.071-6.814-17.236-13.435-1.82-2.894-2.5-4.779,1.044-6.842,4.677-2.719,7.731-6.808,7.844-12.469.094-4.694,4.019-5.089,6.983-6.351,6.631-2.819,12.465-6.174,12.021-14.654-.177-3.4,1.474-4.331,4.56-4.638,6.87-.683,11.867-4.335,13.849-10.994,2.176-7.316-.568-13.259-6.035-18.41-18.912-17.817-37.686-35.785-56.51-53.7-2.067-1.969-4.245-3.838-6.176-5.93-5.789-6.278-6.283-12.679-1.089-17.36,5.762-5.2,11.637-3.938,16.836.908,15.459,14.406,30.75,28.992,46.164,43.443a71.028,71.028,0,0,0,9.179,7.664c7.588,5.01,13.875,4.162,19.489-3.092,4-5.164,7-11.086,10.62-16.557,5.557-8.4,13.23-10.661,20.365-6.18,6.387,4.011,7.912,12.412,3.208,20.563C829.1,305.48,823.2,315.618,816.655,325.3c-4.316,6.381-5.3,11.807-.967,18.705,4.384,6.992,7.66,14.812,7.069,23.414-.854,12.433-7.039,21.562-18.278,26.942-13.567,6.492-27.275,12.694-40.921,19.021Z" transform="translate(10.172 11.954)" fill="#606060"/>
    <path id="Path_20" data-name="Path 20" d="M696.534,295.565c9.994-7.523,12.67-7.451,21.878,1.121q11.887,11.061,23.527,22.393c5.819,5.693,6.424,12.518,1.866,17.315-4.732,4.978-11.032,4.672-17.244-1.025-10.052-9.217-20.023-18.526-30.028-27.8Z" transform="translate(0 62.868)" fill="#606060"/>
    <path id="Path_21" data-name="Path 21" d="M724.44,269.212c2.383-.1,5.016,1.486,7.361,3.69,10.157,9.544,20.446,18.951,30.41,28.689,6.958,6.8,7.667,12.717,2.881,17.8-5.046,5.354-11.763,4.991-18.639-1.382-10.223-9.471-20.251-19.154-30.419-28.687-3.961-3.714-5.311-8.066-3.263-13.11C714.668,271.538,718.349,269.2,724.44,269.212Z" transform="translate(17.361 39.165)" fill="#606060"/>
    <path id="Path_22" data-name="Path 22" d="M758.822,320.618c-.111,5.428-1.869,9.059-6.206,11.16-4.275,2.071-8.393,1.83-11.891-1.418-11.675-10.838-23.444-21.59-34.743-32.812-4.681-4.651-4.267-10.524.378-15.26,4.6-4.692,10.112-5.375,15.175-.709,11.506,10.6,22.8,21.434,34.175,32.174A9.7,9.7,0,0,1,758.822,320.618Z" transform="translate(6.965 49.608)" fill="#606060"/>
    <path id="Path_23" data-name="Path 23" d="M771.392,248.633a9.948,9.948,0,0,1-1.781,2.62c-4.715,3.677-9.469,7.312-14.334,10.789-2.2,1.576-4.4.929-5.988-1.177-1.365-1.815-1.367-3.938.3-5.452,4.647-4.216,9.422-8.412,15.322-10.729C767.93,243.5,770.486,244.826,771.392,248.633Z" transform="translate(58.781 10.843)" fill="#b4b4b4"/>
    <path id="Path_24" data-name="Path 24" d="M743.268,252.7c-.053,2.172-.645,4.651-3.855,4.875-3.425.239-4.017-2.417-4.138-4.993-.2-4.216-.331-8.448-.143-12.657.107-2.411.386-5.328,3.927-5.2,2.943.1,3.485,2.618,3.673,4.809C743.095,243.735,743.1,247.97,743.268,252.7Z" transform="translate(43.725 0)" fill="#b4b4b4"/>
    <path id="Path_25" data-name="Path 25" d="M742.682,256.24c-.485,3.968-3.588,4.715-6.6,2.783-5.883-3.78-9.776-9.623-11.985-16.093-1.068-3.12,1.811-5.147,5.29-4.589C731.748,238.72,742.548,253.1,742.682,256.24Z" transform="translate(31.045 4.009)" fill="#b4b4b4"/>
    <path id="Path_26" data-name="Path 26" d="M758.462,242.933c-2.437,4.655-5.335,10.507-8.57,16.162-.88,1.538-2.938,1.629-4.615.673a3.958,3.958,0,0,1-2.163-4.3,49.891,49.891,0,0,1,7.6-17.061,3.655,3.655,0,0,1,5.3-1.025C757.491,238.356,758.631,239.586,758.462,242.933Z" transform="translate(52.792 2.201)" fill="#b4b4b4"/>
  </g>
</svg>
