<svg xmlns="http://www.w3.org/2000/svg" width="133.479" height="168.133" viewBox="0 0 133.479 168.133">
  <g id="Group_28" data-name="Group 28" transform="translate(-696.534 -234.717)">
    <path id="Path_19" data-name="Path 19" d="M744.6,393.548c-5.11-3.882-11.53-6.011-15.2-11.85-1.6-2.552-2.208-4.216.921-6.035,4.125-2.4,6.819-6.005,6.919-11,.083-4.14,3.545-4.489,6.159-5.6,5.849-2.486,10.995-5.446,10.6-12.926-.156-3,1.3-3.82,4.022-4.091,6.06-.6,10.467-3.824,12.215-9.7,1.919-6.453-.5-11.7-5.323-16.239-16.681-15.715-33.241-31.564-49.845-47.362-1.823-1.737-3.745-3.385-5.448-5.231-5.106-5.538-5.541-11.183-.961-15.312,5.082-4.585,10.264-3.473,14.851.8,13.636,12.707,27.123,25.572,40.719,38.319a62.653,62.653,0,0,0,8.1,6.76c6.693,4.419,12.238,3.671,17.19-2.728,3.526-4.555,6.176-9.778,9.367-14.6,4.9-7.408,11.669-9.4,17.962-5.451,5.634,3.538,6.979,10.948,2.829,18.138-5.157,8.936-10.362,17.878-16.135,26.416-3.807,5.628-4.672,10.415-.853,16.5,3.867,6.167,6.757,13.065,6.235,20.652-.753,10.967-6.209,19.019-16.122,23.764-11.967,5.726-24.058,11.2-36.094,16.777Z" transform="translate(7.916 9.302)" fill="#606060"/>
    <path id="Path_20" data-name="Path 20" d="M696.534,294.918c8.815-6.636,11.176-6.572,19.3.989q10.485,9.756,20.752,19.752c5.133,5.022,5.666,11.042,1.646,15.273-4.174,4.391-9.731,4.121-15.21-.9-8.866-8.13-17.661-16.341-26.486-24.517Z" transform="translate(0 48.922)" fill="#606060"/>
    <path id="Path_21" data-name="Path 21" d="M722.952,269.212c2.1-.085,4.425,1.311,6.493,3.255,8.959,8.418,18.034,16.715,26.823,25.3,6.137,6,6.762,11.217,2.541,15.7-4.451,4.722-10.375,4.4-16.44-1.219-9.017-8.354-17.862-16.894-26.831-25.3-3.494-3.276-4.685-7.114-2.878-11.564C714.332,271.263,717.58,269.2,722.952,269.212Z" transform="translate(13.51 30.477)" fill="#606060"/>
    <path id="Path_22" data-name="Path 22" d="M752.2,315.639c-.1,4.788-1.648,7.99-5.474,9.844-3.771,1.827-7.4,1.614-10.488-1.251-10.3-9.559-20.679-19.044-30.645-28.942-4.129-4.1-3.763-9.283.333-13.46,4.061-4.138,8.919-4.741,13.385-.625,10.149,9.35,20.11,18.906,30.144,28.379A8.558,8.558,0,0,1,752.2,315.639Z" transform="translate(5.42 38.604)" fill="#606060"/>
    <path id="Path_23" data-name="Path 23" d="M768.668,248.118a8.775,8.775,0,0,1-1.571,2.311c-4.159,3.244-8.352,6.45-12.643,9.516-1.944,1.39-3.884.819-5.282-1.038a3.382,3.382,0,0,1,.266-4.809c4.1-3.718,8.311-7.42,13.515-9.463C765.615,243.592,767.87,244.76,768.668,248.118Z" transform="translate(45.742 8.438)" fill="#b4b4b4"/>
    <path id="Path_24" data-name="Path 24" d="M742.3,250.579c-.047,1.916-.569,4.1-3.4,4.3-3.021.211-3.543-2.132-3.65-4.4-.175-3.718-.292-7.452-.126-11.164.094-2.127.341-4.7,3.464-4.59,2.6.09,3.074,2.309,3.24,4.242C742.145,242.671,742.146,246.407,742.3,250.579Z" transform="translate(34.026 0)" fill="#b4b4b4"/>
    <path id="Path_25" data-name="Path 25" d="M740.464,254.118c-.427,3.5-3.165,4.159-5.82,2.454a26.743,26.743,0,0,1-10.571-14.2c-.942-2.752,1.6-4.54,4.666-4.048C730.82,238.664,740.345,251.345,740.464,254.118Z" transform="translate(24.158 3.12)" fill="#b4b4b4"/>
    <path id="Path_26" data-name="Path 26" d="M756.641,242.192c-2.149,4.106-4.705,9.267-7.559,14.255-.776,1.356-2.592,1.437-4.07.593a3.491,3.491,0,0,1-1.908-3.8,44.006,44.006,0,0,1,6.7-15.048,3.224,3.224,0,0,1,4.677-.9C755.784,238.156,756.79,239.241,756.641,242.192Z" transform="translate(41.082 1.713)" fill="#b4b4b4"/>
  </g>
</svg>
