<svg xmlns="http://www.w3.org/2000/svg" width="141.387" height="164.952" viewBox="0 0 141.387 164.952">
  <path id="Icon_material-person-pin" data-name="Icon material-person-pin" d="M130.178,3H20.21A15.705,15.705,0,0,0,4.5,18.71V128.678a15.705,15.705,0,0,0,15.71,15.71H51.629l23.565,23.565,23.565-23.565h31.419a15.756,15.756,0,0,0,15.71-15.71V18.71A15.756,15.756,0,0,0,130.178,3ZM75.194,28.921A21.208,21.208,0,1,1,53.986,50.129,21.22,21.22,0,0,1,75.194,28.921Zm47.129,84.047H28.065V105.9c0-15.71,31.419-24.35,47.129-24.35s47.129,8.64,47.129,24.35Z" transform="translate(-4.5 -3)" fill="#504f52"/>
</svg>
