<svg xmlns="http://www.w3.org/2000/svg" width="188.204" height="96.364" viewBox="0 0 188.204 96.364">
  <path id="Icon_metro-discout" data-name="Icon metro-discout" d="M190.715,57.853c0,12.85-7.42,23.746-18.443,28.07v14.089a6.022,6.022,0,0,1-6.017,6.023H26.977a6.019,6.019,0,0,1-6.023-6.023V85.923C9.924,81.6,2.511,70.7,2.511,57.853s7.42-23.746,18.449-28.07V15.694a6.016,6.016,0,0,1,6.023-6.023H166.261a6.018,6.018,0,0,1,6.017,6.023V29.783C183.3,34.107,190.715,45,190.715,57.853Zm-115.556,0H51.068v6.023H75.159V57.853Zm28.6-20.535a10.1,10.1,0,0,0-13.956,0q-2.549,2.794-2.552,8.6,0,5.832,2.552,8.629c1.693,1.862,2.909,2.794,5.92,2.794,2.9,0,6.343-.931,8.042-2.794s2.546-4.741,2.546-8.629q-.009-5.805-2.552-8.6Zm20.487-3.743-30.9,48.508h6.119l30.749-48.508h-5.968ZM133.868,61.4a10.119,10.119,0,0,0-13.962,0q-2.54,2.8-2.54,8.6,0,5.832,2.54,8.629a9.059,9.059,0,0,0,7.063,2.8,8.872,8.872,0,0,0,6.906-2.8q2.54-2.794,2.546-8.629-.009-5.805-2.552-8.6Zm-7.051,15.365a2.33,2.33,0,0,1-2.038-1.094q-.971-1.424-.974-5.66t.974-5.684a2.306,2.306,0,0,1,2.038-1.07,2.379,2.379,0,0,1,2.068,1.07c.629.968.943,2.866.943,5.684s-.327,4.717-.974,5.684a2.293,2.293,0,0,1-2.038,1.07ZM96.71,52.683a2.322,2.322,0,0,1-2.038-1.1q-.971-1.424-.974-5.66t.974-5.684a2.3,2.3,0,0,1,2.038-1.064,2.381,2.381,0,0,1,2.068,1.064c.629.968.943,2.866.943,5.684s-.327,4.717-.974,5.684A2.312,2.312,0,0,1,96.71,52.683Z" transform="translate(-2.511 -9.671)" fill="#504f52"/>
</svg>
