<svg xmlns="http://www.w3.org/2000/svg" width="174.562" height="139.649" viewBox="0 0 174.562 139.649">
  <path id="Icon_awesome-car-alt" data-name="Icon awesome-car-alt" d="M159.528,58.443,155.44,48.224,148.192,30.1A40.533,40.533,0,0,0,110.374,4.5H64.188A40.537,40.537,0,0,0,26.37,30.1L19.122,48.224,15.034,58.443A23.225,23.225,0,0,0,0,80.143V97.6a23.085,23.085,0,0,0,5.819,15.249v19.664a11.639,11.639,0,0,0,11.637,11.637H29.094a11.639,11.639,0,0,0,11.637-11.637V120.875h93.1v11.637a11.639,11.639,0,0,0,11.637,11.637h11.637a11.639,11.639,0,0,0,11.637-11.637V112.848A23.071,23.071,0,0,0,174.562,97.6V80.143A23.225,23.225,0,0,0,159.528,58.443ZM47.979,38.747A17.458,17.458,0,0,1,64.188,27.775h46.186a17.458,17.458,0,0,1,16.209,10.972l7.248,18.122h-93.1l7.248-18.122ZM29.094,97.527c-6.982,0-11.637-4.64-11.637-11.6s4.655-11.6,11.637-11.6S46.55,84.766,46.55,91.726,36.076,97.527,29.094,97.527Zm116.375,0c-6.982,0-17.456,1.16-17.456-5.8s10.474-17.4,17.456-17.4,11.637,4.64,11.637,11.6-4.655,11.6-11.637,11.6Z" transform="translate(0 -4.5)" fill="#504f52"/>
</svg>
