<svg xmlns="http://www.w3.org/2000/svg" width="150.5" height="150.5" viewBox="0 0 150.5 150.5">
  <path id="Icon_awesome-certificate" data-name="Icon awesome-certificate" d="M134.81,75.227,148.327,62a7,7,0,0,0-3.135-11.857l-18.416-4.7,5.191-18.229a7.122,7.122,0,0,0-8.719-8.722l-18.223,5.193-4.7-18.422A7.053,7.053,0,0,0,88.475,2.125L75.25,15.747,62.026,2.125A7.053,7.053,0,0,0,50.172,5.261l-4.7,18.422L27.251,18.49a7.121,7.121,0,0,0-8.719,8.722L23.723,45.44,5.308,50.14A7,7,0,0,0,2.173,62L15.69,75.227,2.173,88.455a7,7,0,0,0,3.135,11.857l18.416,4.7-5.191,18.229a7.122,7.122,0,0,0,8.719,8.722l18.223-5.193,4.7,18.422a6.989,6.989,0,0,0,11.853,3.136L75.25,134.806l13.224,13.522a7.018,7.018,0,0,0,11.853-3.136l4.7-18.422,18.223,5.193a7.122,7.122,0,0,0,8.719-8.722l-5.191-18.229,18.416-4.7a7,7,0,0,0,3.135-11.857L134.81,75.227Z" transform="translate(0 0)" fill="#504f52"/>
</svg>
