<svg xmlns="http://www.w3.org/2000/svg" width="139.436" height="139.436" viewBox="0 0 139.436 139.436">
  <path id="Icon_awesome-clock" data-name="Icon awesome-clock" d="M70.28.562A69.718,69.718,0,1,0,140,70.28,69.706,69.706,0,0,0,70.28.562Zm16.052,98.42L61.537,80.963a3.4,3.4,0,0,1-1.377-2.727V30.923a3.383,3.383,0,0,1,3.373-3.373H77.027A3.383,3.383,0,0,1,80.4,30.923v38.71L98.252,82.621a3.371,3.371,0,0,1,.731,4.723L91.055,98.252A3.4,3.4,0,0,1,86.332,98.983Z" transform="translate(-0.563 -0.563)" fill="#504f52"/>
</svg>
