<svg xmlns="http://www.w3.org/2000/svg" width="130.5" height="140.538" viewBox="0 0 130.5 140.538">
  <g id="Icon_ionic-ios-gift" data-name="Icon ionic-ios-gift" transform="translate(-3.375 -2.25)">
    <path id="Path_102" data-name="Path 102" d="M123.837,34.875H97.391a18.431,18.431,0,0,0,6.368-13.8c0-10.384-8.878-18.822-19.795-18.822a17.5,17.5,0,0,0-15.34,8.6,17.5,17.5,0,0,0-15.34-8.6c-10.917,0-19.795,8.439-19.795,18.822a18.323,18.323,0,0,0,6.368,13.8H13.413A10.028,10.028,0,0,0,3.375,44.913v6.274A1.258,1.258,0,0,0,4.63,52.442H132.62a1.258,1.258,0,0,0,1.255-1.255V44.913A10.028,10.028,0,0,0,123.837,34.875ZM83.965,11.034A10.312,10.312,0,0,1,94.537,21.072,10.312,10.312,0,0,1,83.965,31.111H73.393C73.393,16.053,78.13,11.034,83.965,11.034Zm-30.68,0c5.835,0,10.572,5.019,10.572,20.077H53.285A10.312,10.312,0,0,1,42.713,21.072,10.312,10.312,0,0,1,53.285,11.034Z" transform="translate(0)" fill="#504f52"/>
    <path id="Path_103" data-name="Path 103" d="M4.5,17.838V87.48A10.068,10.068,0,0,0,14.538,97.518h45.8V15.328H7.01A2.517,2.517,0,0,0,4.5,17.838Z" transform="translate(3.894 45.27)" fill="#504f52"/>
    <path id="Path_104" data-name="Path 104" d="M72.314,15.328H18.984v82.19h45.8A10.068,10.068,0,0,0,74.823,87.48V17.838A2.517,2.517,0,0,0,72.314,15.328Z" transform="translate(54.032 45.27)" fill="#504f52"/>
  </g>
</svg>
