<svg xmlns="http://www.w3.org/2000/svg" width="162.054" height="144.047" viewBox="0 0 162.054 144.047">
  <path id="Icon_awesome-file-signature" data-name="Icon awesome-file-signature" d="M61.38,119.328a3.117,3.117,0,0,0-2.861-1.834,3.068,3.068,0,0,0-2.819,1.742l-2.158,4.316a4.5,4.5,0,0,1-8.294-.588l-4.735-14.2-2.985,8.969a12.146,12.146,0,0,1-11.535,8.308H22.507a4.5,4.5,0,1,1,0-9h3.486a3.153,3.153,0,0,0,2.993-2.155L34.1,99.511a6.755,6.755,0,0,1,12.815,0l3.905,11.715c5.556-4.555,15.209-2.729,18.569,3.984a3.193,3.193,0,0,0,2.633,1.761v-23.1l36.012-35.756v-13.1H69.773a6.772,6.772,0,0,1-6.752-6.752V0H6.752A6.736,6.736,0,0,0,0,6.752V137.295a6.736,6.736,0,0,0,6.752,6.752h94.531a6.736,6.736,0,0,0,6.752-6.752V126.041l-36.012-.031A12.08,12.08,0,0,1,61.38,119.328ZM108.035,34.3a6.731,6.731,0,0,0-1.969-4.755L78.522,1.969A6.747,6.747,0,0,0,73.74,0H72.023V36.012h36.012ZM81.026,97.614v19.424h19.41l45.487-45.8-19.1-19.1-45.8,45.47Zm78.928-50.537-8.966-8.966a7.166,7.166,0,0,0-10.131,0l-7.667,7.667,19.1,19.1,7.667-7.667A7.161,7.161,0,0,0,159.954,47.077Z" fill="#504f52"/>
</svg>
